<?xml version="1.0" encoding="utf-8"?>
<!-- Generator: Adobe Illustrator 21.0.2, SVG Export Plug-In . SVG Version: 6.00 Build 0)  -->
<svg xmlns="http://www.w3.org/2000/svg" xmlns:xlink="http://www.w3.org/1999/xlink" version="1.1" id="Layer_1" x="0px" y="0px" viewBox="0 0 48 48" style="enable-background:new 0 0 48 48;" xml:space="preserve" width="48px" height="48px">
<path style="fill:#37474F;" d="M27,38C9.1,38,5.2,33.2,3.6,31.1c-0.4-0.4-0.6-1-0.6-1.6C3,28.1,4.1,27,5.5,27C6.4,27,9,27,9,22.1  v-0.6C9,12.4,17.1,5,27,5s18,7.4,18,16.5S36.9,38,27,38z"/>
<path style="fill:#ECEFF1;" d="M27,36c8.8,0,16-6.5,16-14.5S35.8,7,27,7s-16,6.5-16,14.5v0.6c0,6.2-3.8,6.9-5.5,6.9  C5.2,29,5,29.2,5,29.5c0,0.1,0,0.2,0.1,0.3C6.6,31.7,10,36,27,36z"/>
<circle style="fill:#37474F;" cx="32" cy="18" r="2"/>
<circle style="fill:#37474F;" cx="22" cy="18" r="2"/>
<path style="fill:#37474F;" d="M27,29c-4.8,0-6.7-3.5-7-5.3c-0.1-0.5,0.3-1.1,0.8-1.2c0.5-0.1,1.1,0.3,1.2,0.8c0,0.1,0.7,3.7,5,3.7  c4.3,0,5-3.5,5-3.7c0.1-0.5,0.6-0.9,1.2-0.8c0.5,0.1,0.9,0.6,0.8,1.1C33.7,25.5,31.8,29,27,29z"/>
<circle style="fill:#37474F;" cx="16.5" cy="38.5" r="4.5"/>
<circle style="fill:#607D8B;" cx="16.5" cy="38.5" r="1.5"/>
<circle style="fill:#37474F;" cx="32.5" cy="38.5" r="4.5"/>
<circle style="fill:#607D8B;" cx="32.5" cy="38.5" r="1.5"/>
</svg>
